<svg xmlns="http://www.w3.org/2000/svg" viewBox="0 0 100 100">
  <defs>
    <linearGradient id="navyGrad" x1="0%" y1="0%" x2="100%" y2="100%">
      <stop offset="0%" style="stop-color:#1a237e"/>
      <stop offset="100%" style="stop-color:#283593"/>
    </linearGradient>
    <linearGradient id="goldGrad" x1="0%" y1="0%" x2="100%" y2="100%">
      <stop offset="0%" style="stop-color:#c9a227"/>
      <stop offset="100%" style="stop-color:#d4b84a"/>
    </linearGradient>
  </defs>

  <!-- Background circle -->
  <circle cx="50" cy="50" r="48" fill="url(#navyGrad)"/>

  <!-- Scales of justice - simplified -->
  <g fill="none" stroke="url(#goldGrad)" stroke-width="3" stroke-linecap="round" stroke-linejoin="round">
    <!-- Center pole -->
    <line x1="50" y1="20" x2="50" y2="75"/>

    <!-- Top balance bar -->
    <line x1="25" y1="35" x2="75" y2="35"/>

    <!-- Left pan strings -->
    <line x1="25" y1="35" x2="20" y2="55"/>
    <line x1="25" y1="35" x2="30" y2="55"/>

    <!-- Right pan strings -->
    <line x1="75" y1="35" x2="70" y2="55"/>
    <line x1="75" y1="35" x2="80" y2="55"/>

    <!-- Left pan -->
    <path d="M15 55 Q25 62 35 55" stroke-width="2.5"/>

    <!-- Right pan -->
    <path d="M65 55 Q75 62 85 55" stroke-width="2.5"/>

    <!-- Base -->
    <path d="M35 75 L50 75 L65 75" stroke-width="4"/>
    <path d="M40 80 L60 80" stroke-width="3"/>
  </g>

  <!-- Checkmark in center -->
  <circle cx="50" cy="48" r="12" fill="url(#goldGrad)" opacity="0.2"/>
  <path d="M44 48 L48 52 L56 44" fill="none" stroke="url(#goldGrad)" stroke-width="3" stroke-linecap="round" stroke-linejoin="round"/>
</svg>
